<?xml version="1.0" encoding="UTF-8" standalone="no"?>
<!DOCTYPE svg PUBLIC "-//W3C//DTD SVG 1.1//EN" "http://www.w3.org/Graphics/SVG/1.1/DTD/svg11.dtd">
<svg width="100%" height="100%" viewBox="0 0 1000 1000" version="1.1" xmlns="http://www.w3.org/2000/svg" xmlns:xlink="http://www.w3.org/1999/xlink" xml:space="preserve" xmlns:serif="http://www.serif.com/" style="fill-rule:evenodd;clip-rule:evenodd;stroke-linejoin:round;stroke-miterlimit:2;">
    <g transform="matrix(22.5738,0,0,22.5738,50,47.0003)">
        <path d="M19.207,39.68C19.043,39.504 18.91,39.258 18.91,39.141C18.91,38.785 19.172,38.313 19.414,38.24C19.871,38.09 19.609,37.95 18.82,37.914C18.156,37.887 17.996,37.84 17.961,37.668C17.926,37.481 18.027,37.453 18.777,37.453L19.637,37.453L19.637,37.012C19.637,36.641 19.512,36.434 18.836,35.68C18.398,35.188 17.988,34.789 17.922,34.789C17.652,34.789 15.98,36.039 15.871,36.321C15.695,36.785 15.723,36.828 16.273,36.973C16.555,37.047 16.883,37.133 17,37.168C17.117,37.2 17.211,37.332 17.211,37.461C17.211,37.746 16.996,37.758 16.191,37.512C15.863,37.414 15.57,37.356 15.543,37.387C15.512,37.418 15.602,37.59 15.742,37.766C16.066,38.181 16.07,38.547 15.75,38.953C15.555,39.2 15.391,39.275 15.031,39.275C14.668,39.275 14.504,39.2 14.312,38.953C14.172,38.778 14.062,38.512 14.062,38.365C14.062,37.996 14.508,37.453 14.809,37.453C15.277,37.453 14.949,37.16 14.293,36.996C13.535,36.805 13.426,36.731 13.57,36.493C13.66,36.348 13.781,36.34 14.305,36.461C15.18,36.664 15.234,36.653 15.316,36.236C15.375,35.95 15.27,35.629 14.844,34.782C14.547,34.184 14.262,33.696 14.211,33.696C14.16,33.696 13.629,33.86 13.027,34.063C12.133,34.36 11.891,34.496 11.719,34.785L11.504,35.145L12.176,35.524C12.812,35.879 12.996,36.137 12.734,36.301C12.668,36.34 12.32,36.203 11.957,36C11.574,35.782 11.262,35.676 11.223,35.743C11.18,35.809 11.203,35.895 11.27,35.939C11.477,36.063 11.41,36.801 11.168,37.102C11.008,37.301 10.812,37.383 10.508,37.383C9.734,37.383 9.285,36.68 9.629,36.012C9.824,35.637 10.035,35.516 10.496,35.516C10.945,35.516 10.848,35.344 10.184,34.985C9.504,34.614 9.426,34.524 9.527,34.254C9.59,34.094 9.707,34.125 10.32,34.457C11.023,34.84 11.043,34.844 11.219,34.614C11.441,34.313 11.434,33.871 11.168,32.68L10.957,31.723L9.895,31.746C8.691,31.778 8.535,31.813 8.148,32.164L7.875,32.41L8.441,32.989C8.934,33.485 8.988,33.59 8.848,33.758C8.703,33.93 8.625,33.891 8.128,33.399C7.82,33.098 7.535,32.848 7.496,32.848C7.457,32.848 7.43,33.067 7.438,33.332C7.453,33.942 7.094,34.344 6.531,34.344C6.07,34.344 5.574,33.848 5.574,33.383C5.574,32.934 6.105,32.461 6.578,32.489C6.793,32.5 7.023,32.504 7.086,32.496C7.152,32.489 6.937,32.215 6.613,31.884C6.102,31.368 6.043,31.258 6.184,31.09C6.324,30.918 6.406,30.961 6.93,31.477L7.516,32.055L7.809,31.754C8.074,31.481 8.104,31.336 8.141,30.184L8.184,28.914L6.965,28.68C5.793,28.457 5.73,28.457 5.418,28.664L5.09,28.879L5.469,29.539C5.809,30.133 5.828,30.223 5.664,30.387C5.504,30.551 5.438,30.496 5.078,29.891C4.629,29.145 4.484,29.055 4.484,29.52C4.484,29.953 3.977,30.426 3.516,30.426C2.668,30.426 2.242,29.383 2.844,28.782C3.148,28.477 3.797,28.375 3.938,28.606C3.98,28.672 4.098,28.727 4.199,28.727C4.336,28.727 4.289,28.567 3.996,28.055C3.641,27.434 3.59,27.032 3.863,27.032C3.926,27.032 4.152,27.317 4.367,27.668C4.582,28.016 4.773,28.321 4.793,28.344C4.816,28.368 4.988,28.293 5.184,28.18C5.465,28.012 5.602,27.766 5.875,26.926C6.062,26.348 6.238,25.813 6.27,25.735C6.301,25.649 5.875,25.364 5.227,25.035C4.022,24.434 4.027,24.434 3.594,24.598C3.293,24.715 3.293,24.715 3.461,25.356C3.68,26.172 3.68,26.262 3.449,26.348C3.246,26.426 3.117,26.196 2.909,25.364C2.781,24.868 2.547,24.653 2.547,25.035C2.547,25.348 1.98,25.817 1.613,25.813C1.223,25.809 0.949,25.633 0.746,25.25C0.527,24.84 0.574,24.618 0.96,24.235C1.379,23.817 1.785,23.782 2.227,24.129C2.523,24.364 2.547,24.368 2.543,24.16C2.543,24.039 2.461,23.673 2.363,23.344C2.16,22.68 2.156,22.707 2.473,22.649C2.66,22.614 2.738,22.735 2.898,23.293C3.133,24.125 3.156,24.157 3.57,24.051C3.801,23.993 4.09,23.684 4.559,22.985L5.223,22L4.34,21.184C3.645,20.543 3.375,20.368 3.074,20.368C2.645,20.364 2.551,20.555 2.547,21.426C2.547,21.86 2.508,21.938 2.305,21.938C2.086,21.938 2.062,21.86 2.062,21.153C2.062,20.719 2.03,20.364 1.996,20.364C1.957,20.364 1.809,20.504 1.66,20.672C1.105,21.321 0,20.91 0,20.059C0,19.227 1.164,18.805 1.676,19.453C1.805,19.621 1.944,19.758 1.987,19.758C2.027,19.758 2.062,19.403 2.062,18.969C2.062,18.211 2.07,18.18 2.363,18.18C2.656,18.18 2.668,18.211 2.668,18.957C2.668,19.703 2.68,19.731 3,19.797C3.387,19.871 3.559,19.77 4.543,18.875L5.266,18.219L4.609,17.219C3.992,16.274 3.559,15.91 3.215,16.043C3.137,16.075 3,16.403 2.909,16.774C2.793,17.266 2.691,17.453 2.547,17.453C2.207,17.453 2.195,17.348 2.43,16.528C2.555,16.094 2.617,15.762 2.57,15.782C2.523,15.805 2.281,15.926 2.035,16.055C1.504,16.325 1.117,16.215 0.78,15.703C0.41,15.141 0.879,14.305 1.559,14.305C1.984,14.305 2.547,14.723 2.547,15.039C2.547,15.168 2.598,15.274 2.66,15.274C2.77,15.274 2.863,15 3.098,14.032C3.184,13.672 3.238,13.641 3.504,13.809C3.648,13.899 3.645,14.024 3.484,14.657C3.285,15.446 3.285,15.442 3.784,15.563C4.039,15.621 4.379,15.508 5.223,15.086C5.875,14.758 6.301,14.473 6.27,14.387C6.238,14.309 6.059,13.758 5.867,13.168C5.586,12.309 5.453,12.063 5.188,11.926C5.008,11.832 4.836,11.758 4.805,11.758C4.773,11.758 4.582,12.059 4.371,12.426C4.043,13.016 3.965,13.082 3.758,12.969C3.534,12.852 3.543,12.817 3.941,12.157C4.168,11.778 4.332,11.442 4.301,11.414C4.273,11.383 4.09,11.43 3.891,11.508C2.922,11.91 2.105,10.731 2.844,9.996C3.238,9.602 3.793,9.602 4.188,9.996C4.352,10.157 4.484,10.43 4.484,10.602C4.484,11.067 4.652,10.973 5.016,10.305C5.395,9.614 5.461,9.551 5.703,9.7C5.848,9.793 5.812,9.93 5.477,10.539L5.078,11.27L5.477,11.457C5.848,11.633 5.973,11.629 7.027,11.41C8.199,11.168 8.363,11.172 8.363,11.438C8.363,11.535 7.945,11.672 7.223,11.809C6.594,11.926 6.051,12.047 6.02,12.082C5.988,12.114 6.125,12.625 6.328,13.223C6.613,14.078 6.66,14.348 6.547,14.485C6.469,14.578 6.438,14.711 6.48,14.778C6.523,14.848 6.07,15.145 5.457,15.453L4.363,16.004L4.684,16.516C4.859,16.801 5.16,17.258 5.352,17.539C5.562,17.844 5.648,18.075 5.574,18.121C5.508,18.164 5.488,18.258 5.535,18.336C5.582,18.414 5.242,18.813 4.719,19.293L3.816,20.118L4.699,20.918C5.18,21.36 5.547,21.766 5.516,21.821C5.48,21.875 5.504,21.957 5.574,21.996C5.645,22.043 5.449,22.442 5.113,22.946C4.789,23.426 4.488,23.883 4.441,23.965C4.383,24.067 4.711,24.293 5.453,24.668C6.07,24.977 6.523,25.274 6.48,25.344C6.438,25.41 6.469,25.543 6.547,25.637C6.66,25.774 6.613,26.043 6.324,26.903C6.121,27.504 5.996,28.016 6.039,28.043C6.086,28.067 6.629,28.184 7.254,28.305C8.242,28.493 8.375,28.547 8.324,28.743C8.285,28.891 8.328,28.969 8.449,28.969C8.605,28.969 8.625,29.157 8.586,30.196L8.535,31.418L9.781,31.336C10.879,31.258 11.031,31.274 11.031,31.442C11.031,31.551 11.105,31.637 11.199,31.637C11.312,31.637 11.438,31.95 11.57,32.575C11.836,33.801 11.879,33.938 11.984,33.938C12.035,33.938 12.551,33.778 13.133,33.582C13.988,33.293 14.207,33.254 14.258,33.391C14.293,33.485 14.398,33.532 14.488,33.496C14.602,33.453 14.832,33.785 15.207,34.535L15.762,35.637L16.809,34.938C17.453,34.512 17.875,34.297 17.906,34.387C17.934,34.465 18.027,34.504 18.113,34.473C18.203,34.438 18.621,34.793 19.078,35.297L19.887,36.18L20.711,35.282C21.266,34.676 21.586,34.414 21.691,34.481C21.781,34.535 21.887,34.512 21.945,34.414C22.02,34.293 22.293,34.422 23.082,34.946L24.117,35.637L24.672,34.535C25.066,33.746 25.273,33.453 25.402,33.5C25.508,33.543 25.574,33.493 25.574,33.375C25.574,33.274 25.645,33.211 25.727,33.243C26.641,33.578 27.906,33.95 27.961,33.899C27.996,33.864 28.102,33.461 28.195,33.008C28.465,31.684 28.48,31.637 28.668,31.637C28.77,31.637 28.848,31.551 28.848,31.442C28.848,31.274 29,31.258 30.09,31.332L31.332,31.418L31.293,30.196C31.258,29.168 31.281,28.969 31.434,28.969C31.551,28.969 31.594,28.891 31.555,28.743C31.504,28.547 31.637,28.493 32.625,28.305C33.25,28.184 33.793,28.067 33.84,28.043C33.883,28.016 33.758,27.504 33.555,26.903C33.266,26.043 33.219,25.774 33.332,25.637C33.41,25.543 33.441,25.41 33.398,25.344C33.355,25.274 33.809,24.977 34.426,24.668C35.168,24.293 35.496,24.067 35.438,23.965C35.391,23.883 35.094,23.438 34.781,22.969C34.352,22.325 34.238,22.059 34.309,21.868C34.359,21.731 34.773,21.282 35.23,20.868L36.062,20.118L35.633,19.727C35.398,19.508 35,19.153 34.746,18.934C34.469,18.696 34.309,18.465 34.348,18.364C34.383,18.266 34.363,18.16 34.305,18.121C34.242,18.082 34.488,17.59 34.855,17.028L35.516,16.004L34.418,15.453C33.816,15.149 33.336,14.836 33.348,14.754C33.359,14.672 33.336,14.524 33.289,14.422C33.246,14.321 33.344,13.832 33.512,13.34C33.969,12.004 34,12.059 32.668,11.809C31.938,11.672 31.516,11.535 31.516,11.438C31.516,11.172 31.68,11.168 32.852,11.41C33.906,11.629 34.031,11.633 34.398,11.461L34.797,11.274L34.398,10.543C34.066,9.934 34.027,9.797 34.176,9.703C34.414,9.551 34.484,9.61 34.863,10.305C35.227,10.973 35.395,11.067 35.395,10.602C35.395,10.168 35.902,9.696 36.363,9.696C36.848,9.696 37.332,10.168 37.332,10.637C37.332,11.278 36.547,11.809 36.02,11.524C35.539,11.266 35.512,11.403 35.906,12.121C36.238,12.731 36.273,12.871 36.129,12.965C35.895,13.11 35.801,13.039 35.52,12.508C35.098,11.707 35.102,11.715 34.711,11.914C34.422,12.067 34.301,12.282 34.012,13.168C33.82,13.758 33.641,14.309 33.609,14.387C33.578,14.473 34.004,14.758 34.656,15.086C35.5,15.508 35.84,15.621 36.094,15.563C36.594,15.442 36.594,15.446 36.395,14.657C36.234,14.024 36.23,13.899 36.375,13.809C36.641,13.641 36.695,13.672 36.781,14.032C37.016,15 37.109,15.274 37.215,15.274C37.281,15.274 37.332,15.172 37.332,15.051C37.332,14.727 37.844,14.305 38.227,14.305C39.242,14.305 39.59,15.504 38.738,16.067C38.398,16.289 37.809,16.223 37.57,15.93C37.273,15.578 37.234,15.778 37.453,16.535C37.684,17.348 37.668,17.453 37.332,17.453C37.188,17.453 37.086,17.266 36.969,16.782C36.879,16.414 36.766,16.086 36.719,16.055C36.672,16.024 36.473,16.032 36.281,16.071C36,16.129 35.797,16.352 35.273,17.184L34.621,18.227L35.34,18.879C36.32,19.77 36.492,19.871 36.879,19.797C37.199,19.731 37.211,19.703 37.211,18.957C37.211,18.211 37.223,18.18 37.516,18.18C37.809,18.18 37.816,18.211 37.816,18.969C37.816,19.403 37.852,19.758 37.891,19.758C37.934,19.758 38.074,19.621 38.203,19.453C38.547,19.02 39.281,19.028 39.629,19.469C39.965,19.903 39.949,20.379 39.578,20.723C39.172,21.11 38.574,21.086 38.219,20.672C38.07,20.504 37.922,20.364 37.883,20.364C37.848,20.364 37.816,20.719 37.816,21.153C37.816,21.84 37.789,21.938 37.59,21.938C37.359,21.938 37.215,21.465 37.215,20.696C37.211,20.403 37.168,20.364 36.816,20.368C36.504,20.368 36.25,20.532 35.539,21.184L34.656,22L35.32,22.985C35.781,23.668 36.082,23.993 36.301,24.051C36.738,24.16 36.785,24.106 36.957,23.34C37.07,22.836 37.16,22.668 37.32,22.668C37.656,22.668 37.68,22.762 37.5,23.36C37.41,23.664 37.332,24.02 37.332,24.149C37.332,24.371 37.344,24.371 37.652,24.129C38.094,23.782 38.5,23.817 38.918,24.235C39.305,24.618 39.352,24.84 39.133,25.25C38.934,25.625 38.656,25.809 38.289,25.813C37.891,25.821 37.332,25.391 37.332,25.082C37.332,24.602 37.098,24.871 36.898,25.578C36.672,26.383 36.617,26.457 36.359,26.301C36.211,26.207 36.215,26.09 36.387,25.453L36.586,24.711L36.285,24.598C35.852,24.434 35.855,24.434 34.652,25.035C34.004,25.364 33.578,25.649 33.609,25.735C33.641,25.813 33.82,26.36 34.012,26.95C34.305,27.852 34.418,28.055 34.719,28.211C34.918,28.313 35.098,28.348 35.117,28.289C35.227,27.981 35.898,27.032 36.004,27.032C36.285,27.032 36.238,27.407 35.875,28.047C35.578,28.575 35.535,28.727 35.68,28.727C35.781,28.727 35.898,28.672 35.938,28.606C35.98,28.539 36.168,28.485 36.355,28.485C36.809,28.485 37.332,29.016 37.332,29.477C37.332,29.953 36.852,30.426 36.363,30.426C35.902,30.426 35.395,29.953 35.395,29.52C35.395,29.043 35.207,29.153 34.801,29.875C34.539,30.34 34.371,30.516 34.242,30.469C33.984,30.371 34.012,30.239 34.426,29.516L34.789,28.879L34.461,28.664C34.148,28.457 34.086,28.457 32.914,28.684L31.695,28.914L31.734,30.184C31.77,31.34 31.797,31.481 32.066,31.754L32.362,32.055L32.949,31.477C33.473,30.961 33.555,30.918 33.695,31.09C33.836,31.258 33.777,31.368 33.266,31.884C32.941,32.215 32.727,32.489 32.793,32.496C32.855,32.504 33.078,32.5 33.281,32.489C34.102,32.446 34.566,33.379 34.031,34C33.418,34.711 32.414,34.289 32.441,33.332C32.449,33.067 32.422,32.848 32.383,32.848C32.344,32.848 32.058,33.098 31.75,33.399C31.254,33.891 31.176,33.93 31.031,33.758C30.891,33.59 30.945,33.485 31.438,32.989L32.004,32.41L31.73,32.164C31.344,31.813 31.188,31.778 29.98,31.746L28.914,31.723L28.656,32.922C28.434,33.969 28.422,34.164 28.566,34.453C28.66,34.637 28.789,34.789 28.852,34.789C28.918,34.789 29.266,34.621 29.625,34.422C30.219,34.086 30.281,34.071 30.359,34.27C30.445,34.5 30.336,34.61 29.516,35.094C29.016,35.387 29.031,35.414 29.727,35.567C30.125,35.657 30.461,36.236 30.355,36.657C30.176,37.379 29.16,37.653 28.711,37.102C28.457,36.785 28.41,36.121 28.629,35.907C28.949,35.586 28.574,35.629 27.941,35.989C27.566,36.2 27.211,36.34 27.145,36.301C26.887,36.137 27.066,35.883 27.691,35.528L28.355,35.157L28.148,34.789C27.977,34.489 27.75,34.364 26.848,34.063C26.246,33.86 25.715,33.696 25.668,33.696C25.617,33.696 25.328,34.192 25.023,34.801C24.594,35.657 24.488,35.981 24.547,36.254C24.637,36.649 24.699,36.664 25.574,36.461C26.098,36.34 26.219,36.348 26.309,36.493C26.453,36.731 26.344,36.805 25.586,36.996C24.93,37.16 24.602,37.453 25.07,37.453C25.371,37.453 25.816,37.996 25.816,38.365C25.816,38.512 25.707,38.778 25.566,38.953C25.375,39.2 25.207,39.275 24.848,39.275C24.027,39.275 23.613,38.434 24.117,37.789C24.25,37.625 24.328,37.457 24.293,37.426C24.258,37.391 23.902,37.446 23.496,37.547C22.871,37.707 22.75,37.707 22.656,37.563C22.516,37.34 22.801,37.129 23.379,37.032C24.059,36.918 24.172,36.813 24.035,36.407C23.93,36.091 23.145,35.442 22.164,34.856L21.84,34.664L20.973,35.649C20.238,36.486 20.113,36.688 20.145,37.012L20.184,37.395L21.008,37.43C21.711,37.461 21.828,37.496 21.793,37.672C21.762,37.836 21.582,37.891 20.938,37.938L20.117,38L20.484,38.344C20.945,38.778 20.969,39.285 20.551,39.703C20.145,40.106 19.594,40.098 19.207,39.68C19.207,39.68 19.594,40.098 19.207,39.68ZM19.758,32.047C19.035,31.856 18.102,31.332 17.898,31.012C17.809,30.864 17.816,30.754 17.93,30.618C18.07,30.45 18.168,30.473 18.832,30.84C19.852,31.41 20.609,31.59 21.215,31.407C21.754,31.246 22.164,30.746 22.262,30.141C22.387,29.383 21.977,29.114 18.934,27.946C17.449,27.375 16.011,26.797 15.746,26.66C14.227,25.883 13.441,24.11 13.879,22.426C14.363,20.547 15.668,18.805 17.477,17.61L17.934,17.305L17.484,16.977C16.07,15.953 15.707,14.797 16.246,13.051C16.379,12.618 16.691,11.993 16.941,11.66C17.777,10.555 19.32,9.418 20.43,9.09L20.918,8.946L20.797,8.223C20.648,7.328 20.875,6.508 21.289,6.45C21.613,6.403 21.703,6.711 21.57,7.43C21.512,7.728 21.508,8.125 21.562,8.317L21.656,8.668L23.223,8.621C24.938,8.575 25.602,8.727 25.754,9.196C25.984,9.922 25.176,10.321 23.438,10.348C22.316,10.364 22.168,10.336 21.816,10.078C21.355,9.735 21.184,9.789 20.344,10.532C18.715,11.977 17.938,14.434 18.648,15.899C19.035,16.7 19.121,16.75 19.879,16.606C20.785,16.434 23.027,16.453 23.383,16.637C24.062,16.989 24.02,17.43 23.273,17.871C22.648,18.235 20.559,18.282 19.52,17.953L18.738,17.707L18.309,17.969C17.25,18.621 16.035,20.055 15.512,21.282C15.141,22.141 15.188,23.09 15.633,23.789C15.945,24.289 16.141,24.43 17.238,24.953C17.922,25.278 19.328,25.86 20.355,26.239C22.703,27.102 23.055,27.285 23.477,27.836C23.781,28.235 23.816,28.383 23.816,29.207C23.816,30.039 23.781,30.184 23.422,30.746C22.574,32.063 21.395,32.485 19.758,32.047C19.758,32.047 21.395,32.485 19.758,32.047ZM22.48,17.371C22.867,17.309 22.914,17.274 22.723,17.2C22.422,17.082 21.582,17.071 20.73,17.172C20.246,17.231 20.133,17.278 20.309,17.344C20.605,17.461 21.848,17.477 22.48,17.371C22.48,17.371 21.848,17.477 22.48,17.371ZM24.348,9.621C24.555,9.578 24.695,9.496 24.656,9.442C24.582,9.317 22.91,9.293 22.605,9.41C22.035,9.629 23.453,9.801 24.348,9.621C24.348,9.621 23.453,9.801 24.348,9.621ZM8.199,10.332C8.156,9.883 8.121,9.321 8.121,9.082C8.121,8.778 8.031,8.563 7.816,8.36L7.512,8.075L6.926,8.649C6.406,9.16 6.324,9.203 6.184,9.032C6.043,8.864 6.098,8.758 6.59,8.258C7.195,7.645 7.211,7.485 6.652,7.598C5.609,7.805 5.188,6.184 6.199,5.832C6.887,5.59 7.457,6.039 7.438,6.805C7.43,7.063 7.457,7.274 7.496,7.274C7.535,7.274 7.82,7.024 8.128,6.723C8.625,6.231 8.703,6.192 8.848,6.364C8.988,6.532 8.934,6.637 8.441,7.133L7.875,7.711L8.172,7.989C8.43,8.231 8.629,8.278 9.723,8.332L10.977,8.395L11.184,7.309C11.441,5.977 11.441,5.821 11.207,5.489L11.023,5.223L10.332,5.629C9.844,5.914 9.609,5.996 9.547,5.899C9.375,5.625 9.461,5.512 10.121,5.157C10.844,4.766 10.953,4.606 10.496,4.606C10.035,4.606 9.824,4.485 9.629,4.106C9.402,3.672 9.508,3.223 9.91,2.907C10.32,2.582 10.738,2.606 11.098,2.965C11.406,3.274 11.516,4.032 11.27,4.184C11.203,4.227 11.18,4.313 11.219,4.375C11.262,4.442 11.578,4.328 11.949,4.118C12.309,3.91 12.66,3.774 12.727,3.817C12.973,3.969 12.836,4.203 12.332,4.481C11.516,4.93 11.508,4.938 11.738,5.34C11.902,5.629 12.141,5.762 13.031,6.059C13.629,6.262 14.16,6.426 14.211,6.426C14.309,6.426 15.395,4.321 15.395,4.133C15.395,4.067 15.344,3.879 15.281,3.715L15.164,3.414L14.426,3.614C13.789,3.785 13.668,3.789 13.578,3.641C13.418,3.383 13.496,3.328 14.301,3.102C15.004,2.903 15.277,2.668 14.797,2.668C14.5,2.668 14.062,2.118 14.062,1.746C14.062,1.383 14.52,0.879 14.938,0.782C15.199,0.719 15.34,0.778 15.633,1.071C16.062,1.5 16.101,1.899 15.75,2.348C15.453,2.723 15.535,2.743 16.484,2.524C17.008,2.403 17.125,2.407 17.215,2.551C17.359,2.785 17.27,2.848 16.441,3.082C15.766,3.278 15.738,3.301 15.816,3.614C15.93,4.071 16.039,4.172 17.062,4.813L17.977,5.379L18.801,4.477C19.512,3.703 19.629,3.512 19.633,3.121L19.637,2.668L18.789,2.668C18.02,2.668 17.938,2.645 17.938,2.426C17.938,2.203 18.02,2.18 18.789,2.18C19.254,2.18 19.637,2.16 19.637,2.129C19.637,2.102 19.473,1.914 19.273,1.715C18.824,1.27 18.805,0.821 19.207,0.418C20.055,-0.429 21.418,0.797 20.602,1.676C20.465,1.821 20.301,1.938 20.238,1.938C20.172,1.938 20.121,1.993 20.121,2.059C20.121,2.129 20.484,2.18 20.969,2.18C21.73,2.18 21.816,2.207 21.816,2.418C21.816,2.625 21.719,2.66 21,2.692L20.184,2.727L20.145,3.11C20.113,3.43 20.238,3.633 20.973,4.461L21.836,5.438L22.766,4.832C23.883,4.11 23.961,4.032 24.062,3.614C24.141,3.301 24.113,3.278 23.438,3.082C22.605,2.848 22.52,2.785 22.668,2.547C22.766,2.387 22.863,2.387 23.512,2.559C23.914,2.66 24.27,2.723 24.301,2.692C24.332,2.66 24.25,2.496 24.117,2.332C23.777,1.899 23.82,1.496 24.246,1.071C24.539,0.778 24.68,0.719 24.941,0.782C25.359,0.879 25.816,1.383 25.816,1.746C25.816,2.118 25.379,2.668 25.082,2.668C24.602,2.668 24.871,2.903 25.578,3.102C26.383,3.328 26.457,3.383 26.301,3.641C26.211,3.789 26.09,3.785 25.453,3.614L24.715,3.414L24.598,3.715C24.535,3.879 24.484,4.067 24.484,4.133C24.484,4.321 25.57,6.426 25.668,6.426C25.715,6.426 26.246,6.262 26.848,6.059C27.75,5.758 27.977,5.633 28.148,5.328C28.379,4.922 28.434,4.981 27.262,4.328C26.902,4.129 26.887,4.094 27.062,3.918C27.238,3.743 27.312,3.758 27.926,4.102C28.293,4.309 28.625,4.43 28.664,4.371C28.699,4.309 28.676,4.227 28.609,4.184C28.539,4.141 28.484,3.895 28.484,3.637C28.484,2.793 29.367,2.383 29.988,2.938C30.461,3.36 30.5,3.77 30.117,4.223C29.895,4.493 29.691,4.606 29.445,4.606C28.926,4.606 29.008,4.754 29.758,5.157C30.422,5.512 30.504,5.625 30.328,5.907C30.258,6.012 30.043,5.938 29.527,5.629C29.137,5.395 28.805,5.219 28.789,5.239C28.773,5.258 28.68,5.426 28.582,5.618C28.422,5.926 28.43,6.09 28.656,7.18L28.91,8.395L30.16,8.332C31.25,8.278 31.449,8.231 31.707,7.989L32.004,7.711L31.438,7.133C30.945,6.637 30.891,6.532 31.031,6.364C31.176,6.192 31.25,6.231 31.75,6.723C32.395,7.356 32.543,7.408 32.43,6.95C32.237,6.192 32.938,5.571 33.684,5.832C34.68,6.18 34.297,7.7 33.234,7.633C32.664,7.595 32.664,7.625 33.266,8.235C33.777,8.754 33.836,8.864 33.695,9.032C33.555,9.203 33.473,9.16 32.953,8.649L32.367,8.075L32.078,8.348C31.82,8.59 31.777,8.77 31.699,9.887C31.629,10.891 31.574,11.153 31.43,11.153C31.281,11.153 31.258,10.953 31.293,9.922L31.332,8.696L30.09,8.778C29.02,8.844 28.848,8.832 28.848,8.672C28.848,8.567 28.77,8.485 28.676,8.485C28.555,8.485 28.438,8.188 28.301,7.547C28.035,6.301 28,6.18 27.895,6.18C27.844,6.18 27.328,6.344 26.742,6.539C25.84,6.844 25.676,6.871 25.613,6.715C25.574,6.614 25.469,6.559 25.379,6.594C25.262,6.641 25.039,6.317 24.668,5.575L24.121,4.489L23.074,5.164C22.328,5.645 22,5.797 21.938,5.692C21.887,5.61 21.777,5.586 21.691,5.641C21.59,5.703 21.262,5.43 20.711,4.836L19.883,3.938L19.102,4.789C18.668,5.254 18.25,5.621 18.168,5.598C18.09,5.578 17.98,5.629 17.934,5.707C17.871,5.805 17.523,5.641 16.801,5.172L15.758,4.489L15.211,5.575C14.84,6.317 14.613,6.641 14.5,6.594C14.41,6.559 14.301,6.614 14.266,6.715C14.203,6.871 14.039,6.844 13.133,6.539C12.551,6.344 12.035,6.18 11.98,6.18C11.883,6.18 11.738,6.676 11.516,7.79C11.426,8.246 11.316,8.485 11.203,8.485C11.109,8.485 11.031,8.567 11.031,8.672C11.031,8.832 10.855,8.844 9.781,8.774L8.535,8.696L8.586,9.922C8.625,10.946 8.605,11.153 8.457,11.153C8.324,11.153 8.258,10.938 8.199,10.332C8.199,10.332 8.258,10.938 8.199,10.332Z"/>
    </g>
</svg>
